/* XPM */
static char *_8a872bc7092415be818d55eb0438c32[] = {
/* columns rows colors chars-per-pixel */
"64 64 59 1 ",
"  c #980088",
". c gray22",
"X c #2C2C2C",
"o c #484848",
"O c #202020",
"+ c #6C4824",
"@ c #A86840",
"# c #F0945C",
"$ c #80502C",
"% c #C87C4C",
"& c #BC0000",
"* c #FC0000",
"= c black",
"- c #FCA470",
"; c #E88C58",
": c #FCB080",
"> c #FC9C60",
", c #FCB890",
"< c #9C6038",
"1 c #BC7848",
"2 c #DC8854",
"3 c #885830",
"4 c #A0643C",
"5 c #D08050",
"6 c #646464",
"7 c #400000",
"8 c gray44",
"9 c #7C0000",
"0 c #880000",
"q c #FCB8B8",
"w c #FC7C7C",
"e c #FC5C5C",
"r c #580000",
"t c #5C4020",
"y c #C80000",
"u c #EC0000",
"i c #A40000",
"p c #FCE8DC",
"a c #B47044",
"s c #980000",
"d c #FC9C9C",
"f c #4C0000",
"g c #E00000",
"h c #B00000",
"j c #D40000",
"k c #483818",
"l c #FC2020",
"z c #700000",
"x c #543C1C",
"c c #640000",
"v c #282828",
"b c #004040",
"n c #005858",
"m c #007070",
"M c #008484",
"N c #D0D0D0",
"B c #989898",
"V c #FCD8D8",
"C c white",
/* pixels */
"                                                                ",
"                                                                ",
"                                                                ",
"                                                                ",
"                                                                ",
"                                                                ",
"                                                                ",
"                                                                ",
"                                                                ",
"                                                                ",
"                                                                ",
"                                                                ",
"                                                                ",
"                                                                ",
"                                                                ",
"                                                                ",
"                                                                ",
"                                                                ",
"                                                                ",
"                                                                ",
"                                                                ",
"                                                                ",
"                                                                ",
"                                                                ",
"                                                                ",
"                                                                ",
"                                                                ",
"                                                                ",
"                                                                ",
"                                                                ",
"                                                                ",
"                                      .                         ",
"                                    X  .                        ",
"                                    ooXOX                       ",
"                                  o.+.XOO                       ",
"                                 oo@#$%%OX                      ",
"                                 o&*=X$-%OX                     ",
"                                ;&:>,X<#$XX                     ",
"                               ;1>1#>:2XX$X                     ",
"                               3>4#1O$1:O$XO                    ",
"                               54#16OO1>33XO                    ",
"                              5@11+78O1#:&O                     ",
"                              9@5+777o#10OO                     ",
"                         qqqwe@@#+77r113tO                      ",
"                    yyyuqeiiiip@$#7+1#4tauup                    ",
"                 0009sqwe7qq*eed&&###4ttu7fwp                   ",
"               gghh77jqf7qe7kadeef$@4ttfs7flw&r                 ",
"            ggggggg07qe0iiii900e&fytttffzfzigsggsr              ",
"           ghhh&iig+hj9suuyyyyi0zzfsssssz*zggggggggr            ",
"           hx&z&ioo..  9u&yyy&yi0csssiii9zzgioooi09zr           ",
"         l g&oooo.v*v7z&yyyyyy&&icsiiiiii9=.o...ooo.r7          ",
"           oobb.vvv*b7i09999ccss0csyyyiiiznnbXXbXXXX.X77        ",
"      &ccooomMmbvmmMyi0c9elccfzszc990el90sgMmnMmbXXbbb77f7cc    ",
"  &gg&somommvvvy==yyyy9fNBwfffzs7cccVdelcsggssXbnXnMmn777777cc  ",
"   &gg&&sssmnbb0sys99cc7wl&fssu&sszcweljccrcccff=Xnbbbr7777r7   ",
"            sszzzzsssssss&&&su&c9sss0099zzzcccrffffff           ",
"                                                                ",
"                                                                ",
"                                                                ",
"                                                                ",
"                                                                ",
"                                                                ",
"                                                                ",
"                                                                "
};
