/* XPM */
static char *_170b958d470474298124cade8e36877[] = {
/* columns rows colors chars-per-pixel */
"64 64 56 1 ",
"  c #980088",
". c #646464",
"X c gray33",
"o c #484848",
"O c gray22",
"+ c #202020",
"@ c #2C2C2C",
"# c #A86840",
"$ c #FC9C60",
"% c #885830",
"& c #483818",
"* c #744C28",
"= c #D08050",
"- c #DC8854",
"; c #FCB080",
": c #FCA470",
"> c #F0945C",
", c #A0643C",
"< c #C87C4C",
"1 c #E88C58",
"2 c #BC7848",
"3 c gray44",
"4 c black",
"5 c #9C6038",
"6 c #80502C",
"7 c #B47044",
"8 c #FCB890",
"9 c #6C4824",
"0 c #5C4020",
"q c #543C1C",
"w c #905C34",
"e c #989898",
"r c #403018",
"t c #B00000",
"y c #A40000",
"u c #7C0000",
"i c #BC0000",
"p c #700000",
"a c #880000",
"s c #580000",
"d c #008484",
"f c #007070",
"g c #005858",
"h c #382C14",
"j c #28200C",
"k c #FC9840",
"l c #848400",
"z c #706C00",
"x c #585400",
"c c #404000",
"v c #302410",
"b c #4C0000",
"n c #00002C",
"m c #00001C",
"M c #000034",
"N c white",
/* pixels */
"                                                                ",
"                                                                ",
"                                                                ",
"                                                                ",
"                                                                ",
"                            .XXooOOO                            ",
"                           oXXoooOOO+                           ",
"                          XOOO@@@OOoO+                          ",
"                          o#$%&++@@O*+                          ",
"                          o=$$$$$-%+#+                          ",
"                          o=;:$$$$;>,+                          ",
"                          O<%,1:>;,%,+                          ",
"                          %234@56@+35%                          ",
"                          7$;8;:-;8;=7                          ",
"                          %$$$$;-$$$=%                          ",
"                           =2>2662>2%                           ",
"                           =7>2++2>76                           ",
"                           =<>#%%#><6                           ",
"                          45<::;:$$<94                          ",
"                         ,46<--27--#&40                         ",
"                    ,,+++,445669999944000***9                   ",
"                  ,%##@@@,444q1#wqq444000*%%%9q                 ",
"                 ,##%,&@@*,4e444444340000*%%*00q                ",
"                ,#75%,9+++,94e4444340000*%%*0090q               ",
"               ,#7#w%,,&++0,*44*r4400*%%%%%*05990q              ",
"              ,,7#w%%,,9+++*5,,,q%%%77775%*0**5600q             ",
"              ,#75%#%0,,&+++*,5,q%557****&*0w*%tyu0q            ",
"             ,,iyyp99q955&+++0*5q%559q&&&&*0w5iaaasq            ",
"             ,iyyyyp90r9%%&+++r*q9**,*w0*r*0wiodfo@sq           ",
"            ,ioooOOus&r9999&++++qq**,*w0*r44iXd4+gO@s           ",
"            idfOOOOdf&909000&++++hr&0&&rrh+4Xof+OgOo@           ",
"            d4+gOOd4+g69000000h++++hr0qqhj+oXoogg@Ooo@          ",
"           of++g@Of++g 6&&hhhhhhjj++++jhjj4dfoo44Oodf@          ",
"           oOgg+44Ogg+ @@+++++4klzx4444444d4+g444+d4+g          ",
"           oOO@4444O@@ @@+++++4zxcc4444444f+OgO++of+Og          ",
"           oOdfO44OdfO @@+++++4444444444444gg@Odfoogg+          ",
"           od4+gOOd4+g 90qrrrrrrjhhhhhhhvvjjOOd4+gOo@           ",
"            f++g@Of++g6*0q&&&&&&rrq0qqqq&&rhuof+OgO@b           ",
"            ugg+@OOgg *6*0000&rrvrq0qqqq&&rhtuOgg+@bb           ",
"            tb@@OOObb 6&&&rrr&&rjrq0qqqq&&rh  %0qqr             ",
"              =999q  9q0q&&&&rvrjrq0qqqq&&rh  #000r             ",
"              500qq  090q&&&&rrvjjvhhhhhhvvj   +++              ",
"               +++   990q&&&&&rhvr&q000q&&rh                    ",
"                     990qq&&&&rhvr&q000q&&rh                    ",
"                    99*900qq&&rhvr&q000q&&rh                    ",
"                    ******00&rhhvr&q000q&&rh                    ",
"                   *999999**9hhvvr&q000q&&rh                    ",
"                   90q000q999jjjvrq90009q&rh                    ",
"                   00r&&&&&qqhvjv99099999qrh                    ",
"                    0rrrrrrrhvv4000q000q090h                    ",
"                    &hhhhhhvvv44qq&rrrrh&qqj                    ",
"                     njvvvvj4444rvhrrrrhhvjj                    ",
"                      nn44444444 44444444444                    ",
"                       n4n444444 4mnmm444444                    ",
"                       n44444444 4mMnm44444                     ",
"                       nn4444444 4444444444                     ",
"                       nnnn4444   4mm44444                      ",
"                        4444444  4mnnmm4444                     ",
"                               ..4mMmm44444ooooooooXXX..        ",
"                      ....XXooO@@4444444444@@@@@@OOOoXX..       ",
"                         ...XXoooOOOOOOOOOOOOOXXX.......        ",
"                                                                ",
"                                                                ",
"                                                                "
};
